<svg xmlns="http://www.w3.org/2000/svg" xmlns:xlink="http://www.w3.org/1999/xlink" version="1.1" id="Isolation_Mode" x="0px" y="0px" viewBox="0 0 199.559 55.579" style="enable-background:new 0 0 199.559 55.579;" xml:space="preserve" width="199.559"  height="55.579" >
<path style="fill:#4A462A;" d="M83.865,52.102c-6.005,0-10.704-4.833-10.704-11.001c0-6.191,4.699-11.031,10.704-11.031  c5.998,0,10.7,4.84,10.7,11.031C94.565,47.269,89.863,52.102,83.865,52.102 M83.865,34.678c-3.339,0-5.495,2.519-5.495,6.423  c0,3.884,2.156,6.396,5.495,6.396c3.3,0,5.519-2.573,5.519-6.396C89.384,37.26,87.165,34.678,83.865,34.678"/>
<path style="fill:#4A462A;" d="M150.172,43.473c2.414-1.227,3.795-3.407,3.795-6.001c0-4.957-3.725-7.356-8.709-7.356  c-5.981,0-8.857,1.19-8.857,1.19v18.579c0,2.825,5.162,1.872,5.162,1.872V34.849c1.058-0.179,1.914-0.288,3.129-0.288  c2.385,0,4.021,0.513,4.021,2.911c0,1.3-0.721,2.322-2.748,2.562c-2.526,0.303-1.526,2.432-0.874,3.851l3.044,6  c1.689,3.392,6.49,1.872,6.49,1.872L150.172,43.473z"/>
<path style="fill:#4A462A;" d="M65.639,30.445l-6.052,10.781l-4.94-8.979c-2.033-3.055-5.801-1.803-5.801-1.803v19.439  c0,2.826,5.164,1.872,5.164,1.872V39.45c0,0,2.717,4.528,3.415,5.718c1.09,1.86,3.624,1.714,4.586,0l3.628-6.164v10.881  c0,2.826,5.166,1.872,5.166,1.872V32.313C70.805,29.487,65.639,30.445,65.639,30.445"/>
<path style="fill:#4A462A;" d="M104.089,30.154c-3.899,0-7.299,1.008-7.299,1.008v18.096c0,3.124,4.976,2.931,7.236,2.931  c6.936,0,11.579-4.63,11.579-11.002C115.606,34.793,110.987,30.154,104.089,30.154 M104.331,47.687  c-1.016,0.046-1.662,0.039-2.604-0.042l0.001-12.905c0.582-0.082,1.255-0.182,1.965-0.182c4.656,0,6.832,2.523,6.832,6.628  C110.524,44.981,108.248,47.52,104.331,47.687"/>
<path style="fill:#4A462A;" d="M170.038,30.445v12.981l-6.892-11.113c-0.69-1.12-1.825-1.643-2.943-1.868  c-0.511-0.12-1.064-0.158-1.572-0.154c-1.032-0.009-1.806,0.154-1.806,0.154v19.439c0,2.826,5.164,1.872,5.164,1.872v-12.98  l6.89,11.108c0.689,1.121,1.826,1.644,2.946,1.872c0.507,0.116,1.062,0.16,1.57,0.156c1.031,0.006,1.807-0.156,1.807-0.156V32.313  C175.202,29.487,170.038,30.445,170.038,30.445"/>
<path style="fill:#4A462A;" d="M122.907,43.141l6.621-0.309c3.348-0.201,2.505-4.124,2.505-4.124h-9.126v-3.805l7.959-0.323  c3.26-0.24,2.574-4.207,2.574-4.207h-15.744V49.23c0,2.423,2.43,3.111,8.198,2.71c8.649-0.602,7.463-2.517,7.463-4.401h-10.45  V43.141z"/>
<path style="fill:#4A462A;" d="M189.525,31.79c-1.008-2.517-5.29-1.188-5.29-1.188l-7.773,19.331  c-1.006,2.725,4.746,1.814,4.746,1.814l1.578-4.218h7.504l0.834,2.368c1.13,2.958,6.158,1.85,6.158,1.85L189.525,31.79z   M184.505,42.94l2.143-5.728l2.021,5.728H184.505z"/>
<path style="fill:#FFFFFF;" d="M37.836,12.69c-0.43-0.18-0.905-0.364-1.434-0.555c-2.687-0.964-9.311-2.435-16.104-2.623  c9.559-2.464,21.36-2.29,33.666-2.273c0.637,0.001,0.07-0.525-0.35-0.747c-11.332-6.301-40.732-9.407-49.65,5.655  c-0.283,0.566-0.504,1.008-0.683,1.37c0.528,6.27,10.117,11.101,18.393,13.813c-0.004,0-0.006,0-0.01,0.001  c0.101,0.033,2.146,0.674,2.839,0.89c0.988,0.364,1.785,0.8,1.934,1.376c0.153,0.668-2.331,2.806-5.367,3.855  c-1.725,0.597-3.584,0.888-5.529,0.863c0,0-2.768-0.094-2.936,0.469c-0.168,0.565,2.809,1.2,2.809,1.2  c1.738,0.243,4.188,0.715,7.253,1.916c2.339-1.515,6.323-2.703,11.703-3.243c7.767-0.778,8.619-2.084,7.838-3.179  c-2.053-2.88-9.274-4.397-13.114-4.754c3.662-1.054,8.073-1.854,13.329-2.26C66.178,22.637,67.236,14.621,37.836,12.69"/>
<g>
	<g>
		<defs>
			<rect id="SVGID_1_" x="3.39" y="9.491" width="37.426" height="12.864"/>
		</defs>
		<clipPath id="SVGID_2_">
			<use xlink:href="#SVGID_1_" style="overflow:visible;"/>
		</clipPath>
		<g style="clip-path:url(#SVGID_2_);">
			<defs>
				<path id="SVGID_3_" d="M36.402,12.135c-5.32-1.907-26.092-5.818-33.012,2.227c0.553,3.147,3.672,5.894,7.129,7.995      c9.807-4.46,26.636-5.881,26.896-5.917C41.883,15.791,42.348,14.27,36.402,12.135"/>
			</defs>
			<clipPath id="SVGID_4_">
				<use xlink:href="#SVGID_3_" style="overflow:visible;"/>
			</clipPath>
			
				<radialGradient id="SVGID_5_" cx="-359.8644" cy="1637.672" r="0.9993" gradientTransform="matrix(78.3064 0 0 -78.3065 28252.9434 128242.3281)" gradientUnits="userSpaceOnUse">
				<stop offset="0" style="stop-color:#FFCB00"/>
				<stop offset="0.4551" style="stop-color:#FFCB00"/>
				<stop offset="0.5282" style="stop-color:#F9C600"/>
				<stop offset="0.624" style="stop-color:#E9B900"/>
				<stop offset="0.7325" style="stop-color:#CEA400"/>
				<stop offset="0.8494" style="stop-color:#A88600"/>
				<stop offset="0.8989" style="stop-color:#967800"/>
				<stop offset="1" style="stop-color:#967800"/>
			</radialGradient>
			<rect x="3.39" y="6.317" style="clip-path:url(#SVGID_4_);fill:url(#SVGID_5_);" width="38.958" height="16.04"/>
		</g>
	</g>
</g>
<g>
	<g>
		<defs>
			<rect id="SVGID_6_" x="3.281" y="1.279" width="50.968" height="16.046"/>
		</defs>
		<clipPath id="SVGID_7_">
			<use xlink:href="#SVGID_6_" style="overflow:visible;"/>
		</clipPath>
		<g style="clip-path:url(#SVGID_7_);">
			<defs>
				<path id="SVGID_8_" d="M53.614,6.491c-11.332-6.301-40.731-9.407-49.65,5.655c-0.282,0.567-0.504,1.007-0.683,1.37      c0.125,1.479,0.512,2.537,1.4,3.806c3.628-3.481,9.103-5.645,11.689-6.596c10.146-3.731,23.542-3.508,37.593-3.489      C54.599,7.239,54.034,6.714,53.614,6.491"/>
			</defs>
			<clipPath id="SVGID_9_">
				<use xlink:href="#SVGID_8_" style="overflow:visible;"/>
			</clipPath>
			
				<radialGradient id="SVGID_10_" cx="-359.8624" cy="1637.6729" r="1.0005" gradientTransform="matrix(78.3086 0 0 -78.3087 28253.6562 128246.0391)" gradientUnits="userSpaceOnUse">
				<stop offset="0" style="stop-color:#DC006E"/>
				<stop offset="0.4551" style="stop-color:#DC006E"/>
				<stop offset="0.5286" style="stop-color:#D6006C"/>
				<stop offset="0.625" style="stop-color:#C60065"/>
				<stop offset="0.7341" style="stop-color:#AB0059"/>
				<stop offset="0.8516" style="stop-color:#850049"/>
				<stop offset="0.8989" style="stop-color:#740042"/>
				<stop offset="1" style="stop-color:#740042"/>
			</radialGradient>
			<rect x="3.281" y="-2.916" style="clip-path:url(#SVGID_9_);fill:url(#SVGID_10_);" width="51.318" height="20.238"/>
		</g>
	</g>
</g>
<g>
	<g>
		<defs>
			<rect id="SVGID_11_" x="12.597" y="26.639" width="29.843" height="11.26"/>
		</defs>
		<clipPath id="SVGID_12_">
			<use xlink:href="#SVGID_11_" style="overflow:visible;"/>
		</clipPath>
		<g style="clip-path:url(#SVGID_12_);">
			<defs>
				<path id="SVGID_13_" d="M42.207,31.478c-2.371-3.327-11.64-4.836-14.625-4.838c-1.797-0.001-3.849,0.243-5.918,0.691      c1.834,0.582,4.489,1.163,4.771,2.266c0.154,0.668-2.331,2.805-5.366,3.855c-1.724,0.598-3.584,0.889-5.529,0.863      c0,0-2.769-0.094-2.937,0.469c-0.168,0.565,2.81,1.199,2.81,1.199c1.738,0.244,4.188,0.716,7.253,1.916      c2.339-1.514,6.323-2.703,11.703-3.242C42.136,33.879,42.988,32.573,42.207,31.478"/>
			</defs>
			<clipPath id="SVGID_14_">
				<use xlink:href="#SVGID_13_" style="overflow:visible;"/>
			</clipPath>
			
				<radialGradient id="SVGID_15_" cx="-359.8663" cy="1637.6796" r="0.9993" gradientTransform="matrix(78.3107 0 0 -78.3107 28254.6953 128249.7656)" gradientUnits="userSpaceOnUse">
				<stop offset="0" style="stop-color:#009CDE"/>
				<stop offset="0.4551" style="stop-color:#009CDE"/>
				<stop offset="0.5273" style="stop-color:#0098D8"/>
				<stop offset="0.6216" style="stop-color:#008CC8"/>
				<stop offset="0.7281" style="stop-color:#0079AD"/>
				<stop offset="0.8429" style="stop-color:#005E88"/>
				<stop offset="0.85" style="stop-color:#005C85"/>
				<stop offset="1" style="stop-color:#005C85"/>
			</radialGradient>
			<rect x="12.435" y="26.639" style="clip-path:url(#SVGID_14_);fill:url(#SVGID_15_);" width="30.553" height="11.26"/>
		</g>
	</g>
</g>
<g>
	<g>
		<defs>
			<rect id="SVGID_16_" x="8.405" y="12.605" width="51.681" height="15.659"/>
		</defs>
		<clipPath id="SVGID_17_">
			<use xlink:href="#SVGID_16_" style="overflow:visible;"/>
		</clipPath>
		<g style="clip-path:url(#SVGID_17_);">
			<defs>
				<path id="SVGID_18_" d="M37.773,12.686c-9.704-0.634-22.984,2.5-29.369,8.265c5.911,4.277,13.01,6.306,16.238,7.313      c4.354-1.802,10.185-3.215,17.779-3.799C66.196,22.636,67.239,14.608,37.773,12.686"/>
			</defs>
			<clipPath id="SVGID_19_">
				<use xlink:href="#SVGID_18_" style="overflow:visible;"/>
			</clipPath>
			
				<radialGradient id="SVGID_20_" cx="-359.8644" cy="1637.6703" r="1.0001" gradientTransform="matrix(78.3076 0 0 -78.3077 28253.4746 128244.1484)" gradientUnits="userSpaceOnUse">
				<stop offset="0" style="stop-color:#85BC40"/>
				<stop offset="0.4551" style="stop-color:#85BC40"/>
				<stop offset="0.5527" style="stop-color:#76AA3B"/>
				<stop offset="0.7476" style="stop-color:#507B2C"/>
				<stop offset="0.8989" style="stop-color:#2F5320"/>
				<stop offset="1" style="stop-color:#2F5320"/>
			</radialGradient>
			<rect x="8.404" y="12.052" style="clip-path:url(#SVGID_19_);fill:url(#SVGID_20_);" width="58.835" height="16.212"/>
		</g>
	</g>
</g>
<path style="fill:#FFFFFF;" d="M30.701,38.81c-0.977-0.031-5.186-0.686-10.104-2.504c-1.699-0.628-3.389-0.917-5.076-1.152  c3.933,0.052,7.927-1.147,10.963-3.976c1.769-1.648,0.578-3.235-3.249-4.257c-4.896-1.306-23.513-8.344-18.129-16.488  c-0.316,0.438-0.823,1.127-1.365,2.096c-1.105,1.977-1.879,4.561-2.047,5.296C-1.218,29.303,3.592,42.707,9.376,48.36  c4.099,3.87,8.48,4.285,10.935,3.11c1.337-0.64,0.346-1.646-2.091-2.596c-0.337-0.13-3.216-1.241-4.013-1.626  c0.003,0.002,0.006,0.002,0.007,0.004c4.628,1.673,9.516,1.476,11.976-1.482c0.674-0.837-1.093-1.196-1.344-1.242  c1.978-1.444,7.875,0.097,8.589-3.688C33.557,38.905,31.628,38.84,30.701,38.81"/>
<path style="fill:#FFFFFF;" d="M29.105,52.662c-0.594,0.729-1.87,1.295-2.876,1.466c-5.878,0.988-3.888-3.83,2.105-2.956  C29.807,51.465,29.618,52.032,29.105,52.662"/>
<g>
	<g>
		<defs>
			<rect id="SVGID_21_" x="0.831" y="17.825" width="32.61" height="26.752"/>
		</defs>
		<clipPath id="SVGID_22_">
			<use xlink:href="#SVGID_21_" style="overflow:visible;"/>
		</clipPath>
		<path style="clip-path:url(#SVGID_22_);fill:#FFCB00;" d="M30.701,38.81c-0.977-0.031-5.186-0.686-10.104-2.504    c-1.762-0.65-3.511-0.938-5.257-1.178c0.818,0.033,1.553,0.007,2.165-0.071C11.448,32.298,0.72,25.518,1.694,17.825    c-1.2,4.728-1.043,9.783-0.174,14.313c2.467,8.663,11.994,12.953,23.326,12.39c1.978-1.444,7.875,0.097,8.589-3.688    C33.557,38.905,31.628,38.84,30.701,38.81"/>
	</g>
</g>
<g>
	<g>
		<defs>
			<rect id="SVGID_23_" x="3.253" y="38.368" width="17.656" height="13.68"/>
		</defs>
		<clipPath id="SVGID_24_">
			<use xlink:href="#SVGID_23_" style="overflow:visible;"/>
		</clipPath>
		<path style="clip-path:url(#SVGID_24_);fill:#0094DA;" d="M18.219,48.875c-3.646-1.42-11.977-4.405-14.966-10.507    c0.345,0.927,0.713,1.801,1.095,2.602c1.57,3.296,3.29,5.691,5.028,7.388c4.099,3.87,8.48,4.286,10.935,3.111    C21.648,50.83,20.658,49.824,18.219,48.875"/>
	</g>
</g>
<g>
	<g>
		<defs>
			<rect id="SVGID_25_" x="1.211" y="30.297" width="25.131" height="18.008"/>
		</defs>
		<clipPath id="SVGID_26_">
			<use xlink:href="#SVGID_25_" style="overflow:visible;"/>
		</clipPath>
		<path style="clip-path:url(#SVGID_26_);fill:#85BC40;" d="M24.845,44.528C17.659,43.036,3.89,38.873,1.211,30.298    c0.582,4.06,1.771,7.807,3.137,10.672c1.55,3.254,4.961,6.965,12.134,7.23c-0.5-0.198-1.035-0.416-1.598-0.656    c-0.269-0.113-0.517-0.215-0.677-0.294c0.003,0.002,0.006,0.002,0.007,0.003c4.627,1.672,9.516,1.476,11.976-1.482    C26.865,44.933,25.097,44.574,24.845,44.528"/>
	</g>
</g>
<g>
	<g>
		<defs>
			<rect id="SVGID_27_" x="22.7" y="51.065" width="6.781" height="3.197"/>
		</defs>
		<clipPath id="SVGID_28_">
			<use xlink:href="#SVGID_27_" style="overflow:visible;"/>
		</clipPath>
		<path style="clip-path:url(#SVGID_28_);fill:#0094DA;" d="M29.105,52.662c-0.594,0.729-1.87,1.295-2.876,1.466    c-5.878,0.988-3.888-3.83,2.105-2.956C29.807,51.465,29.618,52.032,29.105,52.662"/>
	</g>
</g>
<g>
	<g>
		<defs>
			<rect id="SVGID_29_" x="0.832" y="10.433" width="26.453" height="24.722"/>
		</defs>
		<clipPath id="SVGID_30_">
			<use xlink:href="#SVGID_29_" style="overflow:visible;"/>
		</clipPath>
		<path style="clip-path:url(#SVGID_30_);fill:#DC006E;" d="M23.235,26.921c-4.896-1.306-23.513-8.344-18.129-16.488    c-0.316,0.438-0.815,1.133-1.365,2.095c-2.123,3.929-2.934,8.393-2.906,12.766c1.564,9.065,17.256,13.706,25.649,5.885    C28.252,29.529,27.062,27.942,23.235,26.921"/>
	</g>
</g>
</svg>